HIERARCHY
ROOT hip
{
	OFFSET 0.000000 0.000000 0.000000 
	CHANNELS 6 Xposition Yposition Zposition Xrotation Zrotation Yrotation
	JOINT abdomen
	{
		OFFSET 0.000000 3.402643 0.000000 
		CHANNELS 3 Xrotation Zrotation Yrotation
		JOINT chest
		{
			OFFSET 0.000000 8.438565 -0.680529 
			CHANNELS 3 Xrotation Zrotation Yrotation
			JOINT neck
			{
				OFFSET 0.000000 10.207942 -0.272212 
				CHANNELS 3 Xrotation Zrotation Yrotation
				JOINT head
				{
					OFFSET 0.000000 3.130431 0.000000 
					CHANNELS 3 Xrotation Zrotation Yrotation
					End Site
					{
						OFFSET 0.000000 3.130435 0.000000 
					}
				}
			}
			JOINT lCollar
			{
				OFFSET 3.470700 6.669187 -0.816635 
				CHANNELS 3 Yrotation Zrotation Xrotation
				JOINT lShldr
				{
					OFFSET 3.198488 0.000000 0.000000 
					CHANNELS 3 Zrotation Yrotation Xrotation
					JOINT lForeArm
					{
						OFFSET 10.139888 0.000000 0.000000 
						CHANNELS 3 Yrotation Zrotation Xrotation
						JOINT lHand
						{
							OFFSET 8.370511 0.000000 0.000000 
							CHANNELS 3 Zrotation Yrotation Xrotation
							End Site
							{
								OFFSET 4.083176 0.000000 0.000000 
							}
						}
					}
				}
			}
			JOINT rCollar
			{
				OFFSET -3.470700 6.669187 -0.816635 
				CHANNELS 3 Yrotation Zrotation Xrotation
				JOINT rShldr
				{
					OFFSET -3.198488 0.000000 0.000000 
					CHANNELS 3 Zrotation Yrotation Xrotation
					JOINT rForeArm
					{
						OFFSET -10.139888 0.000000 0.000000 
						CHANNELS 3 Yrotation Zrotation Xrotation
						JOINT rHand
						{
							OFFSET -8.370511 0.000000 0.000000 
							CHANNELS 3 Zrotation Yrotation Xrotation
							End Site
							{
								OFFSET -4.083176 0.000000 0.000000 
							}
						}
					}
				}
			}
		}
	}
	JOINT lThigh
	{
		OFFSET 5.308129 -1.633274 1.361059 
		CHANNELS 3 Xrotation Zrotation Yrotation
		JOINT lShin
		{
			OFFSET -2.041588 -20.007561 0.000000 
			CHANNELS 3 Xrotation Zrotation Yrotation
			JOINT lFoot
			{
				OFFSET 0.000000 -19.190928 -1.224953 
				CHANNELS 3 Xrotation Yrotation Zrotation
				End Site
				{
					OFFSET 0.000000 -2.449906 4.627600 
				}
			}
		}
	}
	JOINT rThigh
	{
		OFFSET -5.308129 -1.633274 1.361059 
		CHANNELS 3 Xrotation Zrotation Yrotation
		JOINT rShin
		{
			OFFSET 2.041588 -20.007561 0.000000 
			CHANNELS 3 Xrotation Zrotation Yrotation
			JOINT rFoot
			{
				OFFSET 0.000000 -19.190928 -1.224953 
				CHANNELS 3 Xrotation Yrotation Zrotation
				End Site
				{
					OFFSET 0.000000 -2.449906 4.627600 
				}
			}
		}
	}
}
MOTION
Frames: 18
Frame Time: 0.016667
31.001642 45.518967 18.688183 -5.134590 6.867130 -157.841003 -18.607500 2.037160 2.403890 19.707001 0.703048 1.415360 13.933100 10.471400 -16.079000 13.220300 8.668670 -8.208670 2.000000 -2.000000 0.000000 97.413101 178.884003 -7.082570 50.732899 -0.301382 0.105902 0.046071 -0.021431 -144.598007 -2.000000 2.000000 0.000000 -93.228996 166.942001 3.470610 -64.053299 0.274668 0.122942 -178.210007 179.781006 3.286720 -22.134418 7.125071 -1.311430 29.024055 2.768394 2.178516 -9.066309 1.997191 0.599665 -20.309916 7.571686 -7.050586 18.033606 -1.759936 -1.906475 -1.534423 -5.071206 0.905562 
31.087696 45.423737 18.937796 -4.869930 6.957460 -157.591995 -18.557501 2.077540 2.483940 19.169901 0.419799 1.454680 12.947000 10.679300 -16.002899 12.820900 8.891370 -8.099890 2.000000 -2.000000 0.000000 97.520599 178.660004 -7.239310 51.914501 -0.299181 0.107663 0.046210 -0.022433 -144.959000 -2.000000 2.000000 0.000000 -92.721199 167.106003 2.610830 -65.723198 0.271060 0.124633 -178.210007 179.789993 3.482030 -22.503710 7.194735 -1.774933 29.451281 2.729447 2.220580 -9.012295 1.783139 0.529642 -20.501656 7.657954 -7.019305 18.074301 -1.748147 -1.913585 -1.341082 -5.440388 0.873458 
31.176889 45.415501 19.148319 -5.366500 7.350810 -157.475006 -18.498899 2.039830 2.466840 19.277300 0.078106 1.443570 12.707300 10.992700 -15.932100 12.845100 9.054910 -8.021390 2.000000 -2.000000 0.000000 97.618301 178.475006 -7.464330 53.164501 -0.296814 0.109477 0.046894 -0.026837 -146.550995 -2.000000 2.000000 0.000000 -92.467003 166.626999 2.358110 -67.070801 0.268113 0.125921 -178.210007 179.789993 3.267190 -23.504862 7.376300 -1.810059 29.420490 2.646466 2.239780 -8.884048 1.426180 0.499214 -21.264969 7.734319 -7.103842 17.622763 -1.651685 -1.920831 -0.807013 -5.573730 0.856355 
31.259796 45.372253 19.393328 -6.069890 7.652680 -157.246002 -18.585600 1.997480 2.520560 19.228500 -0.224549 1.470050 12.231600 10.752100 -16.126200 12.695300 9.000840 -8.064470 2.000000 -2.000000 0.000000 97.676804 178.151993 -7.299030 54.258301 -0.294710 0.111022 0.047653 -0.030980 -148.054993 -2.000000 2.000000 0.000000 -92.564301 166.136993 1.890580 -67.910698 0.266262 0.126688 -178.210007 179.789993 3.384380 -24.450804 7.284756 -1.914443 28.927076 2.577583 2.251098 -8.551438 1.385377 0.529052 -22.355661 7.565513 -7.541260 17.552877 -1.581487 -1.971487 -0.532970 -5.609776 0.802659 
31.370897 45.372906 19.653503 -6.584070 7.111480 -157.098007 -18.467400 1.962090 2.565360 19.091801 0.029287 1.473860 11.804800 10.880600 -16.024599 12.571100 9.168280 -7.990090 2.000000 -2.000000 0.000000 97.491402 178.026001 -7.689940 54.824699 -0.293609 0.111806 0.047907 -0.032240 -148.514008 -2.000000 2.000000 0.000000 -93.345001 165.160995 1.980880 -67.852097 0.266391 0.126635 -178.210999 179.781006 3.042580 -24.705473 6.490716 -1.729022 28.255875 2.512004 2.237226 -8.663934 1.874868 0.674114 -23.394302 6.764886 -7.283178 18.404249 -1.615327 -2.003684 -0.372362 -5.908766 0.809987 
31.457737 45.349731 19.896154 -7.164490 7.093190 -156.884995 -18.354700 1.891150 2.292780 19.199200 0.078103 1.326270 11.107400 10.332100 -15.913800 12.241800 9.060540 -7.883760 2.000000 -2.000000 0.000000 -82.830704 2.001680 171.664993 55.303200 -0.292673 0.112459 0.048485 -0.034941 -149.500000 -2.000000 2.000000 0.000000 -94.086800 164.528000 2.685570 -68.301300 0.265397 0.127036 -178.212006 179.770996 2.573840 -25.378366 6.182477 -1.512228 27.948082 2.440427 2.225854 -8.923455 2.321332 0.835534 -24.298447 6.321815 -7.519324 18.438835 -1.575804 -2.046025 0.051213 -5.874126 0.813135 
31.580408 45.346897 20.145208 -7.572320 7.348180 -156.667007 -18.527700 1.794840 2.424830 18.828100 -0.312358 1.386380 11.046800 10.080900 -16.073999 12.149000 8.908040 -7.968250 2.000000 -2.000000 0.000000 -82.430397 2.295060 171.841003 55.371601 -0.292539 0.112552 0.049033 -0.037312 -150.369003 -2.000000 2.000000 0.000000 -94.155098 164.449005 2.402560 -68.613800 0.264704 0.127310 -178.214005 179.751007 1.831620 -26.189877 6.354068 -1.039881 27.787025 2.390777 2.256618 -9.935066 1.894363 0.870067 -25.017899 6.273956 -7.688827 18.148180 -1.532156 -2.037323 0.209971 -5.921826 0.792125 
31.674547 45.359390 20.313602 -7.678310 6.610650 -155.341995 -18.361500 1.402680 2.351850 18.632700 -0.507526 1.296340 10.739400 10.042900 -16.666599 12.056800 8.774780 -8.217080 2.000000 -2.000000 0.000000 98.184502 177.488007 -7.095420 55.313000 -0.292654 0.112473 0.049516 -0.039277 -151.091995 -2.000000 2.000000 0.000000 -94.516098 164.057007 1.651570 -68.994698 0.263856 0.127638 -178.216995 179.722000 0.982019 -26.193348 5.369460 -0.252493 27.333183 2.322010 2.278517 -9.919669 2.890351 1.209292 -24.931246 5.071942 -8.439478 18.037638 -1.552477 -2.013835 -0.182434 -6.214974 0.661001 
31.829800 45.491558 20.460430 -7.865850 6.656110 -153.964005 -18.269199 1.432400 2.014140 18.632799 -0.322084 1.133870 10.145900 10.084400 -16.921200 11.890500 8.846370 -8.291770 2.000000 -2.000000 0.000000 98.155098 177.837997 -6.635660 54.531700 -0.294180 0.111401 0.049933 -0.040892 -151.686996 -2.000000 2.000000 0.000000 -95.316299 163.313004 1.135820 -68.633301 0.264660 0.127327 -178.218002 179.722000 0.874598 -26.679131 5.332467 0.106821 27.269424 2.264570 2.276824 -11.613568 1.519000 0.977198 -24.960728 4.657856 -9.285754 17.287172 -1.493466 -1.995679 0.387085 -7.005233 0.570111 
31.950563 45.513561 20.590292 -8.016700 6.856810 -152.748993 -18.079201 1.498790 1.635330 18.906200 -0.146424 0.951485 9.351450 10.075800 -17.216000 11.663900 8.880580 -8.361530 2.000000 -2.000000 0.000000 98.096603 178.229004 -6.869170 53.330601 -0.296496 0.109714 0.049318 -0.038481 -150.798996 -2.000000 2.000000 0.000000 -96.028801 162.815002 0.873366 -68.691902 0.264530 0.127377 -178.220001 179.712006 0.298434 -26.967007 5.406685 1.128796 26.859570 2.240341 2.269697 -12.193051 1.418980 1.078011 -25.088568 4.445209 -9.884455 17.022984 -1.480963 -1.981327 0.350636 -7.813395 0.461020 
32.172771 45.556812 20.373590 -6.889210 4.770160 -147.537994 -17.404600 0.936179 -0.058384 18.837500 1.142060 -0.004971 8.204430 10.594200 -17.643700 11.215500 9.171510 -8.513110 2.000000 -2.000000 0.000000 98.467697 178.130997 -6.693610 52.168499 -0.298703 0.108036 0.048545 -0.035207 -149.598007 -2.000000 2.000000 0.000000 -96.770302 161.953995 0.269993 -67.881401 0.266327 0.126662 -178.223999 179.692001 -0.434027 -24.793747 3.217105 0.687133 26.042826 2.248955 2.209731 -12.547644 -0.261592 0.585818 -23.635773 2.235082 -10.385427 19.734734 -1.857450 -1.988780 -2.713526 -11.526610 -0.178112 
32.287914 45.598503 20.608715 -7.323910 5.085340 -148.024994 -17.609400 1.006730 0.212584 18.603300 0.936955 0.143831 7.925840 10.375200 -17.680401 11.105900 9.135110 -8.515460 2.000000 -2.000000 0.000000 98.409302 177.878998 -7.455890 50.771999 -0.301310 0.105961 0.047890 -0.032160 -148.483994 -2.000000 2.000000 0.000000 -97.072701 161.572006 -0.197830 -67.363800 0.267469 0.126192 -178.225006 179.682999 -0.570743 -25.228456 3.525944 2.111286 25.889900 2.210812 2.224373 -12.983201 1.624204 1.328091 -24.365053 2.341309 -10.069036 19.338108 -1.798725 -1.989044 -2.313802 -11.393264 -0.125052 
32.320606 45.651146 20.966513 -8.346420 5.295210 -149.496002 -17.782301 1.210720 0.923075 18.661900 0.790583 0.530491 7.521390 10.677600 -17.795799 11.110000 9.319240 -8.502650 2.000000 -2.000000 0.000000 98.165001 177.936005 -6.850290 49.717300 -0.303245 0.104352 0.048176 -0.033525 -148.981995 -2.000000 2.000000 0.000000 -97.990303 161.190002 -0.616828 -67.285698 0.267641 0.126120 -178.229996 179.662994 -1.449630 -26.283081 3.326054 3.001892 26.642773 2.154143 2.304013 -13.427814 4.844759 2.466981 -25.258205 2.060823 -10.308187 17.840052 -1.650342 -1.954265 -0.634601 -9.995376 0.168082 
32.403511 45.678036 21.081322 -7.899410 5.610660 -148.656998 -17.618799 1.366240 0.671313 18.769400 0.761348 0.425465 7.358350 10.611200 -17.935900 11.099000 9.271000 -8.539460 2.000000 -2.000000 0.000000 98.243301 177.966995 -7.660770 48.066898 -0.306212 0.101763 0.047086 -0.027942 -146.951004 -2.000000 2.000000 0.000000 -98.605301 160.828003 -0.938219 -67.295403 0.267619 0.126129 -178.235001 179.643997 -2.172330 -26.297134 3.712946 3.615773 27.944080 2.202680 2.356370 -14.168446 6.043278 2.976037 -24.704538 2.370742 -10.826818 17.058126 -1.600447 -1.908319 -0.287731 -10.678489 0.101707 
32.495628 45.777908 21.222082 -7.954530 5.329390 -147.774002 -17.639200 1.445480 0.604818 18.700800 1.073660 0.394908 6.913430 10.277200 -18.074800 10.849400 9.169650 -8.602730 2.000000 -2.000000 0.000000 -81.971298 2.099590 171.772995 46.348099 -0.309221 0.098977 0.046460 -0.024138 -145.574005 -2.000000 2.000000 0.000000 -99.307999 160.317993 -1.845200 -66.611900 0.269120 0.125490 -178.238998 179.634003 -2.650840 -26.076311 3.281214 4.103872 28.708788 2.213724 2.391966 -13.699094 5.629994 2.804798 -24.596464 1.898508 -11.008327 17.015024 -1.630502 -1.884161 -0.347491 -11.341702 0.028601 
32.551910 45.803001 21.371380 -7.979080 4.942160 -147.020004 -17.706900 1.264380 0.538328 18.515301 0.995462 0.335620 6.607600 10.673300 -18.138500 10.774000 9.345850 -8.603000 2.000000 -2.000000 0.000000 -81.834702 2.470860 171.850006 45.215302 -0.311158 0.097092 0.046514 -0.024489 -145.701004 -2.000000 2.000000 0.000000 -99.756699 159.671005 -2.654190 -65.615799 0.271293 0.124528 -178.246994 179.604996 -3.676270 -25.694542 2.731239 4.640829 29.827351 2.223978 2.459599 -13.050406 5.332098 2.600141 -24.505033 1.293668 -11.288485 17.189545 -1.655726 -1.893075 -0.871778 -11.793560 -0.106856 
32.632343 45.781513 21.513599 -7.324800 5.162830 -146.404999 -17.542500 1.466670 0.467209 18.593500 0.956470 0.328549 6.238530 10.705300 -18.194901 10.655700 9.367720 -8.590510 2.000000 -2.000000 0.000000 -81.961502 2.518580 171.380997 43.603901 -0.313849 0.094346 0.046407 -0.023786 -145.447006 -2.000000 2.000000 0.000000 -100.351997 158.742004 -3.511350 -64.404800 0.273912 0.123307 -178.246002 179.604996 -3.520020 -25.367373 3.202438 4.880408 31.803793 2.287510 2.533427 -13.402228 4.596139 2.335876 -24.063021 1.708601 -11.351208 16.945545 -1.644033 -1.897452 -0.944692 -12.405449 -0.175614 
32.678963 45.762974 21.653013 -7.537570 4.908600 -145.442993 -17.689100 1.425570 0.384928 18.583599 1.151660 0.282602 5.872630 10.180300 -18.353701 10.393500 9.130340 -8.669930 2.000000 -2.000000 0.000000 -82.068802 2.654610 171.087997 41.943802 -0.316539 0.091439 0.046195 -0.022325 -144.919998 -2.000000 2.000000 0.000000 -101.230003 158.298996 -4.707860 -63.008301 0.276900 0.121831 -178.248001 179.604996 -3.793450 -25.156887 2.637028 5.143085 33.325092 2.284475 2.619094 -13.294047 3.484283 1.927969 -24.039673 1.094238 -11.223588 16.578794 -1.656959 -1.839669 -0.940445 -13.321679 -0.284871 
